<mxfile host="app.diagrams.net" agent="Mozilla/5.0 (Windows NT 10.0; Win64; x64) AppleWebKit/537.36 (KHTML, like Gecko) Chrome/133.0.0.0 Safari/537.36" version="26.1.0">
  <diagram name="1 oldal" id="vW0d9iGY4lVtmurSA1oP">
    <mxGraphModel grid="1" page="1" gridSize="10" guides="1" tooltips="1" connect="1" arrows="1" fold="1" pageScale="1" pageWidth="827" pageHeight="1169" math="0" shadow="0">
      <root>
        <mxCell id="0" />
        <mxCell id="1" parent="0" />
        <mxCell id="SLiJRkCuJoeJIqZVfS3b-11" value="" style="endArrow=none;html=1;rounded=0;exitX=0.5;exitY=1;exitDx=0;exitDy=0;entryX=1;entryY=0;entryDx=0;entryDy=0;startFill=0;" edge="1" parent="1" source="SLiJRkCuJoeJIqZVfS3b-42" target="SLiJRkCuJoeJIqZVfS3b-12">
          <mxGeometry width="50" height="50" relative="1" as="geometry">
            <mxPoint x="414" y="280" as="sourcePoint" />
            <mxPoint x="260" y="340" as="targetPoint" />
          </mxGeometry>
        </mxCell>
        <mxCell id="SLiJRkCuJoeJIqZVfS3b-12" value="Tárgy" style="ellipse;whiteSpace=wrap;html=1;" vertex="1" parent="1">
          <mxGeometry y="360" width="120" height="80" as="geometry" />
        </mxCell>
        <mxCell id="SLiJRkCuJoeJIqZVfS3b-13" value="Helyszín" style="ellipse;whiteSpace=wrap;html=1;" vertex="1" parent="1">
          <mxGeometry x="320" y="360" width="120" height="80" as="geometry" />
        </mxCell>
        <mxCell id="SLiJRkCuJoeJIqZVfS3b-14" value="Oktató" style="ellipse;whiteSpace=wrap;html=1;" vertex="1" parent="1">
          <mxGeometry x="480" y="360" width="120" height="80" as="geometry" />
        </mxCell>
        <mxCell id="SLiJRkCuJoeJIqZVfS3b-15" value="Szak" style="ellipse;whiteSpace=wrap;html=1;" vertex="1" parent="1">
          <mxGeometry x="640" y="360" width="120" height="80" as="geometry" />
        </mxCell>
        <mxCell id="SLiJRkCuJoeJIqZVfS3b-16" value="Időpont" style="ellipse;whiteSpace=wrap;html=1;" vertex="1" parent="1">
          <mxGeometry x="160" y="360" width="120" height="80" as="geometry" />
        </mxCell>
        <mxCell id="SLiJRkCuJoeJIqZVfS3b-17" value="Nap" style="ellipse;whiteSpace=wrap;html=1;" vertex="1" parent="1">
          <mxGeometry x="40" y="600" width="120" height="80" as="geometry" />
        </mxCell>
        <mxCell id="SLiJRkCuJoeJIqZVfS3b-18" value="Tól" style="ellipse;whiteSpace=wrap;html=1;" vertex="1" parent="1">
          <mxGeometry x="200" y="600" width="120" height="80" as="geometry" />
        </mxCell>
        <mxCell id="SLiJRkCuJoeJIqZVfS3b-19" value="Ig" style="ellipse;whiteSpace=wrap;html=1;" vertex="1" parent="1">
          <mxGeometry x="360" y="600" width="120" height="80" as="geometry" />
        </mxCell>
        <mxCell id="SLiJRkCuJoeJIqZVfS3b-20" value="" style="endArrow=none;html=1;rounded=0;exitX=0.5;exitY=1;exitDx=0;exitDy=0;entryX=1;entryY=0;entryDx=0;entryDy=0;startFill=0;" edge="1" parent="1" source="SLiJRkCuJoeJIqZVfS3b-42" target="SLiJRkCuJoeJIqZVfS3b-16">
          <mxGeometry width="50" height="50" relative="1" as="geometry">
            <mxPoint x="414" y="280" as="sourcePoint" />
            <mxPoint x="112" y="382" as="targetPoint" />
          </mxGeometry>
        </mxCell>
        <mxCell id="SLiJRkCuJoeJIqZVfS3b-21" value="" style="endArrow=none;html=1;rounded=0;startFill=0;" edge="1" parent="1" target="SLiJRkCuJoeJIqZVfS3b-13">
          <mxGeometry width="50" height="50" relative="1" as="geometry">
            <mxPoint x="414" y="240" as="sourcePoint" />
            <mxPoint x="122" y="392" as="targetPoint" />
          </mxGeometry>
        </mxCell>
        <mxCell id="SLiJRkCuJoeJIqZVfS3b-22" value="" style="endArrow=none;html=1;rounded=0;exitX=0.5;exitY=1;exitDx=0;exitDy=0;entryX=0.5;entryY=0;entryDx=0;entryDy=0;startFill=0;" edge="1" parent="1" source="SLiJRkCuJoeJIqZVfS3b-42" target="SLiJRkCuJoeJIqZVfS3b-14">
          <mxGeometry width="50" height="50" relative="1" as="geometry">
            <mxPoint x="414" y="280" as="sourcePoint" />
            <mxPoint x="132" y="402" as="targetPoint" />
          </mxGeometry>
        </mxCell>
        <mxCell id="SLiJRkCuJoeJIqZVfS3b-23" value="" style="endArrow=none;html=1;rounded=0;exitX=0.5;exitY=1;exitDx=0;exitDy=0;entryX=0;entryY=0;entryDx=0;entryDy=0;startFill=0;" edge="1" parent="1" source="SLiJRkCuJoeJIqZVfS3b-42" target="SLiJRkCuJoeJIqZVfS3b-15">
          <mxGeometry width="50" height="50" relative="1" as="geometry">
            <mxPoint x="414" y="280" as="sourcePoint" />
            <mxPoint x="142" y="412" as="targetPoint" />
          </mxGeometry>
        </mxCell>
        <mxCell id="SLiJRkCuJoeJIqZVfS3b-24" value="" style="endArrow=none;html=1;rounded=0;exitX=0.5;exitY=1;exitDx=0;exitDy=0;entryX=0.5;entryY=0;entryDx=0;entryDy=0;startFill=0;" edge="1" parent="1" source="SLiJRkCuJoeJIqZVfS3b-16" target="SLiJRkCuJoeJIqZVfS3b-17">
          <mxGeometry width="50" height="50" relative="1" as="geometry">
            <mxPoint x="401" y="312" as="sourcePoint" />
            <mxPoint x="152" y="422" as="targetPoint" />
          </mxGeometry>
        </mxCell>
        <mxCell id="SLiJRkCuJoeJIqZVfS3b-25" value="" style="endArrow=none;html=1;rounded=0;exitX=0.5;exitY=1;exitDx=0;exitDy=0;entryX=0.5;entryY=0;entryDx=0;entryDy=0;startFill=0;" edge="1" parent="1" source="SLiJRkCuJoeJIqZVfS3b-16" target="SLiJRkCuJoeJIqZVfS3b-18">
          <mxGeometry width="50" height="50" relative="1" as="geometry">
            <mxPoint x="411" y="322" as="sourcePoint" />
            <mxPoint x="162" y="432" as="targetPoint" />
          </mxGeometry>
        </mxCell>
        <mxCell id="SLiJRkCuJoeJIqZVfS3b-26" value="" style="endArrow=none;html=1;rounded=0;entryX=0.5;entryY=0;entryDx=0;entryDy=0;startFill=0;" edge="1" parent="1" target="SLiJRkCuJoeJIqZVfS3b-19">
          <mxGeometry width="50" height="50" relative="1" as="geometry">
            <mxPoint x="220" y="440" as="sourcePoint" />
            <mxPoint x="172" y="442" as="targetPoint" />
          </mxGeometry>
        </mxCell>
        <mxCell id="SLiJRkCuJoeJIqZVfS3b-41" value="rwwf5w_orarend" style="rounded=0;whiteSpace=wrap;html=1;" vertex="1" parent="1">
          <mxGeometry x="354" width="120" height="60" as="geometry" />
        </mxCell>
        <mxCell id="SLiJRkCuJoeJIqZVfS3b-42" value="Óra" style="rounded=0;whiteSpace=wrap;html=1;" vertex="1" parent="1">
          <mxGeometry x="354" y="180" width="120" height="60" as="geometry" />
        </mxCell>
        <mxCell id="SLiJRkCuJoeJIqZVfS3b-46" value="&lt;u&gt;ID&lt;/u&gt;" style="ellipse;whiteSpace=wrap;html=1;" vertex="1" parent="1">
          <mxGeometry x="800" y="360" width="120" height="80" as="geometry" />
        </mxCell>
        <mxCell id="SLiJRkCuJoeJIqZVfS3b-47" value="" style="endArrow=none;html=1;rounded=0;exitX=0.5;exitY=1;exitDx=0;exitDy=0;entryX=0.5;entryY=0;entryDx=0;entryDy=0;startFill=0;" edge="1" parent="1" source="SLiJRkCuJoeJIqZVfS3b-42" target="SLiJRkCuJoeJIqZVfS3b-46">
          <mxGeometry width="50" height="50" relative="1" as="geometry">
            <mxPoint x="424" y="250" as="sourcePoint" />
            <mxPoint x="668" y="382" as="targetPoint" />
          </mxGeometry>
        </mxCell>
        <mxCell id="SLiJRkCuJoeJIqZVfS3b-48" value="Tartalom" style="rhombus;whiteSpace=wrap;html=1;" vertex="1" parent="1">
          <mxGeometry x="364" y="100" width="100" height="50" as="geometry" />
        </mxCell>
        <mxCell id="SLiJRkCuJoeJIqZVfS3b-49" value="" style="endArrow=classic;html=1;rounded=0;exitX=0.5;exitY=0;exitDx=0;exitDy=0;entryX=0.5;entryY=1;entryDx=0;entryDy=0;startFill=0;endFill=1;" edge="1" parent="1" source="SLiJRkCuJoeJIqZVfS3b-48" target="SLiJRkCuJoeJIqZVfS3b-41">
          <mxGeometry width="50" height="50" relative="1" as="geometry">
            <mxPoint x="424" y="250" as="sourcePoint" />
            <mxPoint x="112" y="382" as="targetPoint" />
          </mxGeometry>
        </mxCell>
        <mxCell id="SLiJRkCuJoeJIqZVfS3b-50" value="" style="endArrow=classic;html=1;rounded=0;exitX=0.5;exitY=1;exitDx=0;exitDy=0;startFill=0;endFill=1;" edge="1" parent="1" source="SLiJRkCuJoeJIqZVfS3b-48">
          <mxGeometry width="50" height="50" relative="1" as="geometry">
            <mxPoint x="434" y="260" as="sourcePoint" />
            <mxPoint x="414" y="170" as="targetPoint" />
          </mxGeometry>
        </mxCell>
        <mxCell id="SLiJRkCuJoeJIqZVfS3b-51" value="" style="endArrow=classic;html=1;rounded=0;exitX=0.5;exitY=1;exitDx=0;exitDy=0;entryX=0.5;entryY=0;entryDx=0;entryDy=0;startFill=0;endFill=1;" edge="1" parent="1" source="SLiJRkCuJoeJIqZVfS3b-48" target="SLiJRkCuJoeJIqZVfS3b-42">
          <mxGeometry width="50" height="50" relative="1" as="geometry">
            <mxPoint x="444" y="270" as="sourcePoint" />
            <mxPoint x="132" y="402" as="targetPoint" />
          </mxGeometry>
        </mxCell>
      </root>
    </mxGraphModel>
  </diagram>
</mxfile>
